<svg width="40" height="58" viewBox="0 0 40 58" fill="none" xmlns="http://www.w3.org/2000/svg">
<path d="M37.2707 17.335C36.5787 17.134 35.8447 17.202 35.2047 17.527C34.4317 17.919 33.7547 18.379 33.1627 18.887V6.305C33.1627 3.035 30.5027 0.375 27.2327 0.375H9.1117C5.8417 0.375 3.1817 3.035 3.1817 6.305V19.756C2.1847 19.934 1.2737 20.542 0.747703 21.495L0.434704 22.063C-0.0132964 22.875 -0.118296 23.813 0.138704 24.704C0.395704 25.595 0.984703 26.333 1.7977 26.781L1.8807 26.827C1.4237 27.127 1.0307 27.538 0.748704 28.049L0.435704 28.617C-0.012296 29.429 -0.117296 30.367 0.139704 31.258C0.396704 32.149 0.985704 32.887 1.7987 33.335L1.8827 33.381C1.4257 33.681 1.0317 34.092 0.749704 34.603L0.433704 35.17C-0.0142959 35.982 -0.119296 36.919 0.137704 37.811C0.394704 38.702 0.983704 39.439 1.7957 39.888L1.8787 39.934C1.4217 40.234 1.0287 40.645 0.746704 41.155L0.433704 41.723C-0.0142959 42.535 -0.119296 43.473 0.137704 44.364C0.394704 45.255 0.983704 45.993 1.7967 46.441L2.7257 46.954L10.8647 53.955V56.69C10.8647 57.206 11.2837 57.625 11.7997 57.625C12.3157 57.625 12.7347 57.206 12.7347 56.69V53.526C12.7347 53.254 12.6157 52.995 12.4097 52.818L8.9567 49.847C9.2997 49.845 9.6447 49.796 9.9837 49.698C10.9507 49.419 11.7507 48.78 12.2387 47.896L12.2657 47.847C12.3197 47.749 12.3687 47.649 12.4127 47.548H24.1347C24.3597 48.333 24.5507 48.807 24.5607 48.831C24.7587 49.307 25.3027 49.533 25.7807 49.335C26.2567 49.138 26.4837 48.592 26.2867 48.115C26.1117 47.69 22.0997 37.665 30.7987 33.297C31.1727 33.11 31.3757 32.696 31.2967 32.286C31.2787 32.188 29.5147 22.51 36.0517 19.193C36.2637 19.085 36.5197 19.061 36.7767 19.136C37.2507 19.274 37.5417 19.758 37.4397 20.238L37.2787 20.982C36.7177 23.562 35.9497 27.095 35.9497 31.898V56.688C35.9497 57.204 36.3687 57.623 36.8847 57.623C37.4007 57.623 37.8197 57.204 37.8197 56.688V31.9C37.8197 27.298 38.5627 23.878 39.1057 21.381L39.2677 20.628C39.5717 19.194 38.7047 17.75 37.2707 17.335ZM2.0707 22.966L2.3837 22.398C2.5907 22.023 2.9307 21.751 3.3417 21.633C3.4897 21.59 3.6397 21.569 3.7887 21.569C4.0557 21.569 4.3207 21.637 4.5617 21.77L9.8817 24.706C10.7977 25.212 11.1317 26.369 10.6267 27.286L11.4447 27.737L10.5987 27.336C10.0927 28.252 8.9347 28.586 8.0187 28.08L2.6987 25.144C1.9257 24.717 1.6437 23.74 2.0707 22.966ZM2.0707 29.519L2.3837 28.951C2.5907 28.576 2.9307 28.304 3.3417 28.186C3.4897 28.143 3.6397 28.122 3.7887 28.122C4.0557 28.122 4.3207 28.19 4.5617 28.323L9.8807 31.259C10.7977 31.765 11.1317 32.922 10.6257 33.839L10.5987 33.89C10.0927 34.806 8.9347 35.139 8.0187 34.634L2.6987 31.698C1.9257 31.27 1.6437 30.293 2.0707 29.519ZM2.0707 36.073L2.3837 35.505C2.6747 34.976 3.2237 34.678 3.7887 34.678C4.0507 34.678 4.3167 34.742 4.5617 34.878L9.8807 37.814C10.7977 38.32 11.1317 39.477 10.6257 40.394L10.5987 40.444C10.3537 40.888 9.9497 41.21 9.4627 41.351C8.9757 41.492 8.4627 41.435 8.0187 41.189L2.6987 38.252C2.3237 38.045 2.0517 37.705 1.9337 37.294C1.8147 36.881 1.8637 36.448 2.0707 36.073ZM10.6267 46.945L10.5997 46.995C10.3547 47.439 9.9507 47.761 9.4637 47.902C8.9767 48.043 8.46371 47.986 8.0197 47.74L2.6997 44.804C1.9257 44.377 1.6437 43.4 2.0707 42.626L2.3837 42.058C2.6747 41.529 3.2237 41.231 3.7887 41.231C4.0507 41.231 4.3167 41.295 4.5617 41.431L9.8807 44.367C10.7987 44.871 11.1327 46.029 10.6267 46.945ZM12.7147 45.679C12.6037 44.504 11.9447 43.402 10.8547 42.769C11.4287 42.431 11.9057 41.944 12.2367 41.343L12.2637 41.294C13.2547 39.497 12.6187 37.235 10.8497 36.213C10.8687 36.202 10.8877 36.189 10.9067 36.178C10.9867 36.2 11.0707 36.213 11.1567 36.213H24.9237C23.0707 39.443 23.2257 43.128 23.6947 45.679H12.7147ZM29.3527 31.949C28.0987 32.653 27.0937 33.465 26.2907 34.344H12.4517C13.1547 32.624 12.4907 30.611 10.8517 29.661C11.4137 29.331 11.8967 28.851 12.2337 28.241L12.2617 28.19L12.2627 28.188C13.2657 26.369 12.6027 24.073 10.7847 23.069L5.4647 20.133C5.3297 20.058 5.1907 19.995 5.0507 19.94V6.305C5.0507 4.066 6.8727 2.244 9.1117 2.244H27.2327C29.4717 2.244 31.2937 4.066 31.2937 6.305V21.027C28.7307 24.961 29.1077 30.096 29.3527 31.949Z" fill="#8BC53F"/>
<path d="M25.6277 10.722C23.3197 9.53899 20.5887 9.47199 18.1987 10.536C15.8347 9.47199 13.0847 9.53399 10.7267 10.742C10.4167 10.903 10.2217 11.223 10.2217 11.572V21.146C10.2217 21.472 10.4087 21.765 10.6867 21.935C10.9637 22.105 11.3287 22.108 11.6177 21.961C13.5327 20.98 15.8197 20.979 17.7427 21.965L17.7777 21.983C17.9097 22.049 18.0527 22.082 18.1957 22.082C18.3427 22.082 18.4877 22.045 18.6217 21.977C18.6337 21.972 18.6457 21.967 18.6577 21.962C20.5727 20.981 22.8597 20.98 24.7827 21.966L24.8177 21.984C24.9497 22.05 25.0927 22.083 25.2357 22.083C25.4067 22.083 25.5767 22.036 25.7277 21.944C26.0027 21.774 26.1707 21.472 26.1707 21.149V11.575C26.1717 11.221 25.9397 10.882 25.6277 10.722ZM12.0917 19.756V12.166C13.7357 11.482 15.5967 11.48 17.2627 12.169V19.753C15.5857 19.224 13.7787 19.225 12.0917 19.756ZM24.3027 19.753C22.6257 19.225 20.8197 19.225 19.1317 19.756V12.166C20.7757 11.482 22.6367 11.48 24.3027 12.169V19.753Z" fill="#8BC53F"/>
</svg>
