<svg width="42" height="48" viewBox="0 0 42 48" fill="none" xmlns="http://www.w3.org/2000/svg">
<path fill-rule="evenodd" clip-rule="evenodd" d="M23.0733 0.699489L22.8349 0.829158L22.6844 1.05866L22.5341 1.28817L22.5341 1.66061L22.5341 2.03305L22.6849 2.26329L22.8358 2.49353L23.0922 2.62612L23.3486 2.75872L24.3177 2.75872L25.2868 2.75872L25.2601 3.51367L25.2336 4.26862L24.593 4.33826L23.9525 4.40799L23.0511 4.6396L22.1497 4.8713L21.3481 5.19213L20.5465 5.51296L19.8461 5.91203L19.1458 6.31119L18.4272 6.82859L17.7085 7.34598L16.8657 8.19345L16.0228 9.041L15.4349 9.85763L14.8469 10.6743L14.3468 11.6809L13.8466 12.6875L13.6106 13.4028L13.3745 14.1181L13.1783 15.0042L12.982 15.8903L12.982 17.629L12.982 19.3676L13.1831 20.2999L13.3844 21.2323L13.6689 22.0386L13.9534 22.845L14.3203 23.577L14.6874 24.3091L15.0998 24.9497L15.5122 25.5902L16.0959 26.2912L16.6795 26.9921L17.2047 27.4726L17.7299 27.953L18.3704 28.4311L19.011 28.909L19.7431 29.3282L20.4751 29.7473L21.3931 30.1136L22.3111 30.4799L23.2934 30.7166L24.2759 30.9533L25.3038 31.021L26.3317 31.0888L27.3383 31.0227L28.3449 30.9565L29.0694 30.8059L29.7938 30.6553L30.625 30.3789L31.4562 30.1026L32.5086 29.5593L33.5609 29.016L34.3419 28.4325L35.1229 27.8491L36.0348 26.9004L36.9468 25.9515L37.4707 25.1693L37.9945 24.387L38.4941 23.3415L38.9936 22.2959L39.2308 21.4723L39.468 20.6488L39.6121 19.7794L39.7561 18.9101L39.753 17.5832L39.7499 16.2563L39.6043 15.4327L39.4587 14.6091L39.179 13.6941L38.8992 12.779L38.4129 11.7724L37.9266 10.7658L37.3452 9.94218L36.7638 9.1186L35.8029 8.15675L34.8421 7.19499L34.0127 6.63074L33.1835 6.0665L32.3655 5.65754L31.5477 5.24868L30.7414 4.9651L29.9351 4.6816L29.0341 4.49794L28.1332 4.31437L27.8501 4.31437L27.5671 4.31437L27.5663 4.01697L27.5655 3.71956L27.5078 3.23914L27.45 2.75872L28.4707 2.75872L29.4914 2.75872L29.8333 2.44548L30.1751 2.13225L30.1751 1.66061L30.1751 1.18897L29.8333 0.875736L29.4914 0.5625L26.4017 0.56616L23.3119 0.569821L23.0733 0.699489ZM28.2992 6.65124L29.077 6.77752L29.8091 7.01572L30.5411 7.25392L31.1817 7.56112L31.8223 7.8684L32.5322 8.33199L33.242 8.79558L34.0337 9.5519L34.8253 10.3082L35.3428 11.0023L35.8603 11.6965L36.2788 12.5122L36.6972 13.328L36.9347 14.0425L37.1722 14.7571L37.3328 15.5067L37.4934 16.2563L37.4923 17.6747L37.4912 19.0931L37.3265 19.8523L37.1618 20.6114L36.9525 21.2249L36.7433 21.8384L36.4142 22.5247L36.0851 23.211L35.7228 23.7601L35.3605 24.3091L34.8244 24.9473L34.2882 25.5855L33.6501 26.1216L33.0119 26.6578L32.4628 27.0205L31.9138 27.3833L31.2732 27.6934L30.6326 28.0034L29.9315 28.2377L29.2303 28.472L28.5589 28.6148L27.8874 28.7577L26.7893 28.8073L25.6911 28.8571L24.7458 28.712L23.8005 28.5669L22.8542 28.2502L21.9079 27.9336L21.3288 27.6414L20.7497 27.3491L20.066 26.8879L19.3823 26.4267L18.5964 25.669L17.8104 24.9113L17.2959 24.1968L16.7815 23.4824L16.4071 22.7519L16.0327 22.0214L15.7221 21.0605L15.4117 20.0997L15.3006 19.335L15.1895 18.5703L15.2378 17.1845L15.286 15.7988L15.5149 14.9227L15.7436 14.0466L16.0369 13.3423L16.3301 12.638L16.8012 11.8634L17.2723 11.0888L17.8101 10.4394L18.3479 9.78982L19.0737 9.17186L19.7993 8.55381L20.5117 8.12317L21.2241 7.69252L21.9648 7.37224L22.7056 7.05205L23.6035 6.82227L24.5015 6.59259L25.3709 6.52231L26.2402 6.45203L26.8808 6.48854L27.5213 6.52505L28.2992 6.65124ZM26.0681 8.80372L25.8045 8.8804L25.5876 9.0842L25.3706 9.28799L25.2797 9.61513L25.1889 9.94218L25.1827 13.5568L25.1766 17.1714L23.441 18.4983L21.7056 19.8252L21.5118 20.028L21.3182 20.231L21.2757 20.6728L21.2333 21.1146L21.47 21.396L21.7068 21.6774L21.9816 21.7912L22.2565 21.9051L22.5554 21.8465L22.8544 21.788L24.8676 20.2292L26.8808 18.6702L27.1553 18.3995L27.4298 18.1289L27.4554 13.8759L27.4809 9.623L27.339 9.34875L27.1972 9.07459L26.9932 8.9473L26.7893 8.8201L26.5605 8.77361L26.3317 8.72704L26.0681 8.80372ZM10.1804 28.8886L9.49403 29.0135L8.67045 29.2516L7.84687 29.4897L6.88602 29.9006L5.92518 30.3114L5.05584 30.803L4.1865 31.2945L3.45443 31.772L2.72236 32.2495L1.69846 33.0102L0.674565 33.7709L0.583422 34.1012L0.492188 34.4315L0.675389 35.1354L0.85859 35.8393L2.04592 40.2677L3.23325 44.6962L3.32677 44.8709L3.42039 45.0457L3.71194 45.2235L4.00348 45.4013L4.28918 45.4016L4.57478 45.402L5.275 44.9449L5.97514 44.4878L6.43195 44.2564L6.88886 44.0248L7.45933 43.878L8.02989 43.7311L8.94498 43.7869L9.86007 43.8428L10.9124 44.0324L11.9648 44.222L13.0629 44.4963L14.161 44.7706L17.5468 45.7679L20.9327 46.7654L21.8478 46.9942L22.7629 47.2231L23.3907 47.3303L24.0186 47.4375L24.7492 47.3952L25.4799 47.3529L26.5006 46.8366L27.5213 46.3203L29.2353 45.2435L30.9494 44.1666L32.5289 43.0685L34.1084 41.9704L36.0766 40.4944L38.0449 39.0185L38.9375 38.2689L39.8301 37.5193L40.4109 36.9471L40.9916 36.3749L41.2912 35.7662L41.5909 35.1575L41.5909 34.5799L41.5909 34.0024L41.3551 33.5373L41.1194 33.0721L40.8175 32.8167L40.5156 32.5614L40.0123 32.3288L39.509 32.0961L38.7312 32.0972L37.9534 32.0982L37.3128 32.3117L36.6722 32.5252L33.0176 34.3652L29.363 36.2053L29.2996 36.2321L29.2363 36.2589L28.9978 35.8522L28.7594 35.4453L28.2157 34.9533L27.672 34.4612L26.8651 33.9853L26.0582 33.5093L25.051 33.0982L24.044 32.6871L20.7954 31.4848L17.5468 30.2825L15.928 29.7401L14.3092 29.1977L13.32 28.9733L12.3308 28.749L11.5987 28.7564L10.8667 28.7637L10.1804 28.8886ZM13.1086 31.2364L13.8865 31.4224L15.1218 31.8332L16.3572 32.2441L19.56 33.4265L22.7629 34.6091L23.8495 35.0351L24.9362 35.4611L25.6836 35.9065L26.4309 36.3521L26.7702 36.6629L27.1095 36.9738L27.1095 37.1568L27.1095 37.3398L26.8083 37.5696L26.507 37.7994L25.9618 38.0517L25.4166 38.3041L24.7303 38.2983L24.044 38.2926L23.3565 38.1016L22.6691 37.9107L21.206 37.2987L19.7431 36.6867L19.1025 36.4598L18.4619 36.2328L17.8671 36.1063L17.2723 35.9797L16.9246 35.9781L16.5769 35.9765L16.3029 36.1183L16.0289 36.2599L15.8503 36.5529L15.6715 36.8459L15.6713 37.1297L15.6709 37.4136L15.8798 37.7245L16.0886 38.0355L16.4517 38.144L16.8148 38.2525L17.4267 38.3407L18.0385 38.4289L19.3026 38.9495L20.5666 39.4701L21.5019 39.8292L22.4372 40.1883L23.0118 40.3473L23.5864 40.5062L24.7761 40.5039L25.9657 40.5016L26.652 40.2223L27.3383 39.9431L28.798 39.1052L30.2575 38.2674L33.711 36.5251L37.1645 34.7829L37.7669 34.5561L38.3694 34.3294L38.7158 34.3294L39.0623 34.3294L39.2277 34.4503L39.3933 34.5714L39.2541 34.8405L39.1149 35.1097L38.6257 35.5686L38.1364 36.0275L37.3586 36.6725L36.5807 37.3175L35.2539 38.3243L33.927 39.331L32.5086 40.3369L31.0902 41.3428L29.7175 42.2584L28.3449 43.1741L27.2468 43.8446L26.1487 44.5152L25.4166 44.8731L24.6845 45.2312L24.162 45.1752L23.6395 45.1192L22.5606 44.8546L21.4817 44.59L18.5394 43.7155L15.5971 42.8409L14.3758 42.5155L13.1544 42.1901L11.8275 41.9136L10.5006 41.6373L8.99073 41.5863L7.48083 41.5354L6.88602 41.6867L6.29121 41.8381L5.63189 42.1494L4.97257 42.4608L4.92553 42.307L4.87849 42.1534L3.91481 38.5643L2.95113 34.9752L2.95113 34.9021L2.95113 34.8291L4.35259 33.892L5.75415 32.9547L6.82965 32.4092L7.90507 31.8637L8.88385 31.5473L9.86254 31.231L10.4562 31.1345L11.0497 31.0381L11.3242 31.0059L11.5987 30.9738L11.9648 31.0122L12.3308 31.0505L13.1086 31.2364Z" fill="#8BC53F"/>
</svg>
