<svg width="50" height="50" viewBox="0 0 50 50" fill="none" xmlns="http://www.w3.org/2000/svg">
<path fill-rule="evenodd" clip-rule="evenodd" d="M28.7396 0.692705L28.4376 0.994662V1.67462V2.35445L19.8477 2.38768L11.2578 2.4209L10.6557 2.79324L10.0537 3.1657L9.68131 3.7674L9.30907 4.3691L9.2702 6.36677L9.23133 8.36431L8.77815 8.44835L8.32497 8.53251L7.58689 8.91987L6.84881 9.30722L6.17175 9.98607L5.49468 10.665L5.16095 11.2895L4.82721 11.914L4.63863 12.6381L4.45006 13.3622L4.45153 14.0439L4.45301 14.7256L4.61748 15.3408L4.78207 15.9561L5.10793 16.5975L5.43367 17.2389L5.80996 17.6675L6.18614 18.0962L5.65632 18.2335L5.12663 18.3708L4.38855 18.5674L3.65047 18.7639L3.06173 19.0561L2.47299 19.3485L1.99398 19.7813L1.51509 20.2142L1.14826 20.7922L0.781437 21.3701L0.58597 22.0385L0.390625 22.7068V28.4225V34.1384L0.530983 34.6073L0.671464 35.0759L1.02291 35.5025L1.37448 35.929L1.95892 36.2131L2.54335 36.4971L3.4352 36.4901L4.32704 36.4831L4.32827 41.7234L4.3295 46.9639L4.62067 47.5791L4.91197 48.1943L5.32689 48.588L5.74169 48.9816L6.35676 49.2566L6.97182 49.5316H7.77141H8.57099L9.18151 49.2582L9.79214 48.9848L10.0118 48.7858L10.2317 48.5869L10.4515 48.7858L10.6712 48.9848L11.2818 49.2582L11.8923 49.5316L12.6919 49.5332L13.4915 49.5349L14.1681 49.2223L14.8447 48.9096L15.2388 48.5037L15.6328 48.0977L15.8539 47.6539L16.0748 47.21L16.1122 44.5348L16.1496 41.8595L15.8411 41.5509L15.5324 41.2422H15.1522H14.772L14.4701 41.5443L14.1681 41.8462V44.0707V46.295L13.9933 46.7136L13.8185 47.1321L13.4458 47.3249L13.0731 47.5176H12.6919H12.3107L11.9381 47.3249L11.5654 47.1321L11.3906 46.7136L11.2158 46.295V39.764V33.2329L10.9138 32.931L10.6119 32.6289H10.2317H9.85144L9.54956 32.931L9.24756 33.2329V39.764V46.295L9.07276 46.7136L8.89796 47.1321L8.52523 47.3249L8.15262 47.5176H7.77141H7.39019L7.01758 47.3249L6.64485 47.1321L6.47005 46.7136L6.29525 46.295V35.2113V24.1275L5.99325 23.8255L5.69138 23.5234H5.31115H4.93091L4.62904 23.8255L4.32704 24.1275V28.999V33.8706L4.02505 34.1725L3.72317 34.4746H3.34294H2.9627L2.66083 34.1725L2.35883 33.8706L2.35957 28.5431L2.36019 23.2158L2.49366 22.7348L2.62725 22.254L2.94462 21.7741L3.26212 21.2942L3.76389 21.0049L4.26554 20.7158L5.19269 20.4593L6.11983 20.203L7.34541 20.0182L8.57099 19.8335H9.92414H11.2773L12.4765 20.0143L13.6759 20.1951L18.4427 17.967L23.2095 15.7388L23.567 15.7346L23.9245 15.7305L24.1513 16.0107L24.3782 16.291L24.3763 16.6772L24.3744 17.0635L24.2841 17.2008L24.1936 17.338L23.6401 17.6204L23.0865 17.9027L18.7811 19.9118L14.4756 21.9209L14.3219 22.1304L14.1681 22.34V28.536V34.7319L14.4701 35.0339L14.772 35.3359H15.1522H15.5324L15.8343 35.0339L16.1363 34.7319V33.0651V31.3984H21.6104H27.0845V35.7534V40.1084L22.8713 43.7664L18.6581 47.4242L18.2583 47.8382L17.8585 48.2523V48.6288V49.0053L18.1605 49.3073L18.4623 49.6094H18.8687H19.2748L23.1489 46.2359L27.0229 42.8625L27.0845 44.501L27.146 46.1393L27.3803 46.3978L27.6146 46.6562H28.0662H28.5177L28.7814 46.3755L29.0452 46.0947L29.0796 44.4743L29.1142 42.8539L32.4355 45.7547L35.7569 48.6554L36.3523 49.1324L36.9476 49.6094H37.3111H37.6748L37.9766 49.3073L38.2786 49.0053V48.7021V48.3991L38.2042 48.2052L38.1299 48.0114L33.5912 44.0595L29.0527 40.1075V35.7553V31.403L38.3191 31.37L47.5856 31.3369L48.1877 30.9646L48.7897 30.5921L49.1621 29.9903L49.5343 29.3885L49.5719 26.7647L49.6094 24.141L49.3006 23.8323L48.992 23.5234H48.6117H48.2315L47.9296 23.8255L47.6276 24.1275V26.4189V28.7104L47.2681 29.07L46.9085 29.4297H31.5202H16.132L16.165 26.3976L16.1978 23.3654L20.6263 21.3109L25.0547 19.2564L25.6306 18.6967L26.2065 18.1368L26.3515 17.6002L26.4965 17.0635L26.4297 16.4117L26.363 15.7599L26.0495 15.2249L25.7361 14.69L25.334 14.3508L24.9317 14.0115L24.5056 13.833L24.0795 13.6543L23.337 13.7104L22.5945 13.7664L19.5192 15.2147L16.4438 16.6631L15.6943 17.0033L14.9448 17.3434L15.3159 16.6582L15.6869 15.9729L15.8482 15.2877L16.0095 14.6025L16.0113 13.9824L16.0133 13.3622L15.8247 12.6381L15.6361 11.914L15.3024 11.2895L14.9687 10.665L14.2706 9.95739L13.5723 9.24963L12.6743 8.81921L11.7762 8.38867H11.496H11.2158V6.71806V5.04746L11.5753 4.68779L11.9349 4.32812H29.4217H46.9085L47.2681 4.68779L47.6276 5.04746V11.0304V17.0132L47.9296 17.3151L48.2315 17.6172H48.6117H48.992L49.2972 17.3119L49.6024 17.0066L49.5683 10.6884L49.5343 4.37008L49.1621 3.76789L48.7897 3.1657L48.1877 2.79324L47.5856 2.4209L38.9957 2.38768L30.4058 2.35445V1.67462V0.994662L30.1038 0.692705L29.8019 0.390625H29.4217H29.0415L28.7396 0.692705ZM19.3906 8.5677L19.0886 8.86966V9.25V9.63034L19.3906 9.93229L19.6925 10.2344H29.4217H39.1509L39.4528 9.93229L39.7548 9.63034V9.25V8.86966L39.4528 8.5677L39.1509 8.26562H29.4217H19.6925L19.3906 8.5677ZM11.906 10.7241L12.678 11.1043L13.0544 11.5796L13.4307 12.055L13.6737 12.5905L13.9166 13.126L13.9194 13.9346L13.9221 14.7433L13.7283 15.312L13.5346 15.8809L13.0361 16.4473L12.5378 17.0136L11.9075 17.3444L11.2773 17.6753H10.2317H9.18606L8.55586 17.3444L7.92554 17.0136L7.42722 16.4473L6.92877 15.8809L6.73502 15.312L6.54128 14.7433L6.54398 13.9346L6.54669 13.126L6.78435 12.6023L7.02201 12.0785L7.35439 11.6425L7.6869 11.2066L8.22569 10.8907L8.76437 10.575L9.28274 10.4057L9.80112 10.2363L10.4675 10.2901L11.1338 10.3439L11.906 10.7241ZM27.5979 12.4879L27.3305 12.7727V13.2047V13.6367L27.6151 13.9044L27.8999 14.1719H35.4936H43.0873L43.3892 13.8698L43.6912 13.5678V13.1875V12.8072L43.3892 12.5052L43.0873 12.2031H35.4764H27.8655L27.5979 12.4879ZM28.705 16.4254L28.4376 16.7102V17.1422V17.5742L28.7223 17.8419L29.007 18.1094H36.0472H43.0873L43.3892 17.8073L43.6912 17.5053V17.125V16.7447L43.3892 16.4427L43.0873 16.1406H36.03H28.9726L28.705 16.4254ZM47.9296 19.888L47.6276 20.19V20.5703V20.9506L47.9296 21.2526L48.2315 21.5547H48.6117H48.992L49.2938 21.2526L49.5958 20.9506V20.5703V20.19L49.2938 19.888L48.992 19.5859H48.6117H48.2315L47.9296 19.888ZM26.7935 20.3332L26.4694 20.5882V21.0625V21.5368L26.7935 21.7918L27.1177 22.0469H35.1024H43.0873L43.3892 21.7448L43.6912 21.4428V21.0625V20.6822L43.3892 20.3802L43.0873 20.0781H35.1024H27.1177L26.7935 20.3332ZM14.4701 37.6068L14.1681 37.9087V38.2891V38.6694L14.4701 38.9714L14.772 39.2734H15.1522H15.5324L15.8343 38.9714L16.1363 38.6694V38.2891V37.9087L15.8343 37.6068L15.5324 37.3047H15.1522H14.772L14.4701 37.6068Z" fill="#8BC53F"/>
</svg>
