<svg width="176" height="60" viewBox="0 0 176 60" fill="none" xmlns="http://www.w3.org/2000/svg">
<path d="M71.6136 20.5024H66.8624V22.0851H71.2633V24.549H66.8624V26.231H71.6136V28.6949H64.2734V18.0296H71.6136V20.5024ZM81.1514 20.5024H78.242V28.6949H75.6537V20.5024H72.7564V18.0288H81.1514V20.5024ZM91.4374 28.6949H82.6017V18.0296H85.1899V26.231H88.8459V18.0288H91.439V28.6949H91.4374ZM93.568 18.0288H97.5403C99.0947 18.0288 100.392 18.5405 101.434 19.5622C102.473 20.584 102.997 21.8543 102.997 23.3627C102.997 24.8791 102.473 26.1406 101.434 27.1631C100.392 28.1848 99.0931 28.6965 97.5403 28.6965H93.568V18.0288ZM96.1562 20.5024V26.231H97.5403C98.3853 26.231 99.0738 25.967 99.6048 25.44C100.141 24.9041 100.404 24.2206 100.404 23.3627C100.404 22.5136 100.14 21.822 99.6048 21.2934C99.073 20.7664 98.3853 20.5024 97.5403 20.5024H96.1562ZM112.011 20.5024H107.26V22.0851H111.662V24.549H107.26V26.231H112.011V28.6949H104.671V18.0296H112.011V20.5024ZM121.441 20.5024H116.447V22.0278H121.441V28.6957H113.853V26.2318H118.852V24.4925H113.853V18.0288H121.441V20.5024ZM75.2574 46.9764H72.6644V40.1358L69.8501 44.0097H69.6032L66.789 40.1358V46.9764H64.1975V36.3111H67.1392L69.7275 39.8477L72.3157 36.3111H75.2591V46.9764H75.2574ZM78.5381 37.7041C79.6091 36.6493 80.9327 36.1126 82.5073 36.1126C84.0818 36.1126 85.4046 36.6485 86.4764 37.7041C87.5473 38.767 88.0832 40.0777 88.0832 41.6442C88.0832 43.2099 87.5473 44.5213 86.4764 45.5842C85.4054 46.6471 84.0818 47.1757 82.5073 47.1757C80.9327 47.1757 79.6099 46.6487 78.5381 45.5842C77.4672 44.5197 76.9313 43.2107 76.9313 41.6442C76.9305 40.0777 77.4664 38.767 78.5381 37.7041ZM84.6218 39.4433C84.0657 38.8751 83.3603 38.5862 82.5081 38.5862C81.6558 38.5862 80.9456 38.8751 80.3895 39.4433C79.8286 40.0196 79.5526 40.754 79.5526 41.6442C79.5526 42.5424 79.8286 43.2768 80.3895 43.845C80.9456 44.4213 81.655 44.7102 82.5081 44.7102C83.3611 44.7102 84.0657 44.4213 84.6218 43.845C85.1827 43.2768 85.4619 42.5424 85.4619 41.6442C85.4619 40.7532 85.181 40.0204 84.6218 39.4433ZM89.7603 36.3111H93.7326C95.287 36.3111 96.584 36.8212 97.6267 37.8445C98.6654 38.8663 99.1892 40.1366 99.1892 41.645C99.1892 43.1614 98.6654 44.4229 97.6267 45.4454C96.584 46.4672 95.2854 46.9788 93.7326 46.9788H89.7603V36.3111ZM92.3485 38.784V44.5125H93.7326C94.5776 44.5125 95.2661 44.2485 95.7971 43.7215C96.333 43.1856 96.5961 42.5021 96.5961 41.6442C96.5961 40.7951 96.3322 40.1035 95.7971 39.5749C95.2652 39.0479 94.5776 38.784 93.7326 38.784H92.3485ZM108.203 38.784H103.452V40.3666H107.853V42.8305H103.452V44.5125H108.203V46.9764H100.863V36.3111H108.203V38.784ZM118.168 43.1518H117.039L118.576 46.9764H115.807L114.252 43.1518H112.619V46.9764H110.031V36.3111H118.166V43.1518H118.168ZM112.621 38.784V40.9606H115.79V38.784H112.621ZM127.033 42.9129L126.847 40.779V36.3119H129.44V46.9772H126.497L122.569 40.3827L122.767 42.5101V46.9772H120.175V36.3111H123.118L127.033 42.9129ZM138.837 38.784H134.086V40.3666H138.486V42.8305H134.086V44.5125H138.837V46.9764H131.497V36.3111H138.837V38.784ZM148.266 38.784H143.272V40.3093H148.266V46.9772H140.678V44.5133H145.677V42.7732H140.678V36.3111H148.266V38.784ZM162.571 38.784H157.577V40.3093H162.571V46.9772H154.984V44.5133H159.983V42.7732H154.984V36.3111H162.571V38.784ZM173.569 46.9764H170.981V43.795H167.293V46.9764H164.705V36.3111H173.569V46.9764ZM167.293 38.784V41.323H170.981V38.784H167.293Z" fill="#32560F"/>
<path d="M130.389 22.6928H132.943V23.286H129.766V18.0288H130.39L130.389 22.6928ZM135.519 19.0731C135.869 19.0731 136.185 19.1595 136.465 19.3322C136.745 19.5049 136.961 19.739 137.111 20.0343V19.1555H137.742V23.2852H137.111V22.4208C136.971 22.7049 136.752 22.943 136.48 23.1068C136.341 23.1916 136.19 23.2561 136.034 23.2981C135.866 23.3433 135.693 23.3659 135.52 23.3659C134.982 23.378 134.466 23.1561 134.104 22.7582C133.725 22.3546 133.536 21.8405 133.536 21.2207C133.536 20.8099 133.624 20.4395 133.798 20.1094C133.973 19.7785 134.212 19.5235 134.516 19.3435C134.819 19.1635 135.153 19.0731 135.519 19.0731ZM136.694 20.1062C136.421 19.8181 136.04 19.6583 135.643 19.6671C135.225 19.6671 134.874 19.814 134.591 20.1062C134.308 20.3983 134.166 20.7704 134.166 21.2207C134.166 21.6711 134.306 22.0431 134.586 22.3353C134.867 22.6274 135.218 22.7743 135.642 22.7743C136.065 22.7743 136.416 22.6274 136.696 22.3353C136.977 22.0431 137.117 21.6711 137.117 21.2207C137.119 20.7704 136.977 20.3991 136.694 20.1062ZM142.427 23.2868H138.913V19.1555H139.537V22.6847H141.805V19.1555H142.429V23.2868H142.427ZM146.67 19.6671H144.221V20.8842H146.67V23.2868H143.599V22.7767H146.039V21.4249H143.599V19.1555H146.67V19.6671ZM149.576 19.0731C149.927 19.0731 150.242 19.1595 150.522 19.3322C150.802 19.5049 151.019 19.739 151.169 20.0343V19.1555H151.8V23.2852H151.169V22.4208C151.028 22.7049 150.81 22.943 150.538 23.1068C150.399 23.1916 150.248 23.2561 150.091 23.2981C149.923 23.3433 149.751 23.3659 149.577 23.3659C149.011 23.3659 148.539 23.1633 148.162 22.7582C147.784 22.3522 147.594 21.8397 147.594 21.2183C147.594 20.8075 147.682 20.4371 147.856 20.107C148.186 19.4621 148.852 19.061 149.576 19.0731ZM150.751 20.1062C150.479 19.8181 150.097 19.6583 149.701 19.6671C149.283 19.6671 148.931 19.814 148.648 20.1062C148.365 20.3983 148.223 20.7704 148.223 21.2207C148.223 21.6711 148.363 22.0431 148.643 22.3353C148.924 22.6274 149.275 22.7743 149.699 22.7743C150.122 22.7743 150.473 22.6274 150.754 22.3353C151.035 22.0431 151.174 21.6711 151.174 21.2207C151.176 20.7704 151.034 20.3991 150.751 20.1062ZM156.47 23.2868H155.839V19.7575H153.594V23.2868H152.97V19.1555H156.469V23.2868H156.47ZM161.141 23.2868H160.51V19.7575H158.264V23.2868H157.64V19.1555H161.14V23.2868H161.141ZM164.19 19.0731C164.735 19.0731 165.207 19.2491 165.605 19.5993C166.098 20.0311 166.353 20.6735 166.293 21.3256H162.703C162.713 21.7615 162.861 22.1214 163.146 22.4031C163.426 22.6839 163.809 22.8381 164.206 22.8284C164.551 22.8284 164.852 22.7299 165.111 22.5322C165.369 22.3345 165.537 22.0738 165.611 21.7477H166.249C166.159 22.2376 165.924 22.6315 165.544 22.9277C165.162 23.223 164.691 23.3796 164.207 23.3707C163.811 23.3707 163.45 23.2779 163.122 23.0923C162.799 22.9115 162.532 22.6452 162.351 22.3216C162.164 21.9858 162.068 21.6065 162.073 21.2215C162.073 20.6114 162.275 20.0997 162.681 19.6889C163.076 19.2822 163.623 19.0594 164.19 19.0731ZM164.199 19.5985C163.818 19.5985 163.493 19.718 163.226 19.9545C162.957 20.1933 162.787 20.5234 162.749 20.881H165.641C165.609 20.5202 165.438 20.1869 165.164 19.9504C164.897 19.7188 164.553 19.5929 164.199 19.5985ZM133.318 26.5941H130.397V28.247H133.318V31.2589H129.765V30.6657H132.694V28.8482H129.765V26.0026H133.318V26.5941ZM138.884 31.2581H138.125L137.712 29.8692L137.156 27.7732H137.11L136.554 29.8692L136.14 31.2581H135.382L134.165 27.1284H134.789L135.171 28.427L135.772 30.5447L136.365 28.427L136.747 27.1284H137.513L137.896 28.427L138.496 30.5447L139.089 28.427L139.472 27.1284H140.096C140.098 27.1276 138.884 31.2581 138.884 31.2581ZM140.884 25.6967C140.967 25.6184 141.078 25.5764 141.193 25.5797C141.315 25.5797 141.418 25.6184 141.501 25.6967C141.582 25.7717 141.628 25.8783 141.625 25.9888C141.629 26.0986 141.583 26.2043 141.501 26.2778C141.416 26.3528 141.306 26.3932 141.193 26.3899C141.08 26.3932 140.969 26.3536 140.884 26.2778C140.803 26.2043 140.757 26.0986 140.76 25.9888C140.76 25.8726 140.802 25.775 140.884 25.6967ZM141.504 31.2581H140.88V27.1284H141.504V31.2581ZM143.637 27.1276H145.288V27.7208H143.637V30.6641H145.288V31.2573H143.006V27.7216H142.285V27.1284H143.006V26.2197H143.637V27.1276ZM149.351 27.7216L146.775 30.6649H149.374V31.2581H145.942V30.6649L148.509 27.7216H146.084V27.1284H149.351C149.351 27.1276 149.351 27.7216 149.351 27.7216ZM152.055 27.0445C152.6 27.0445 153.072 27.2204 153.47 27.5707C153.963 28.0024 154.219 28.6449 154.158 29.297H150.568C150.578 29.7328 150.726 30.0927 151.011 30.3744C151.291 30.6552 151.674 30.8094 152.071 30.7997C152.416 30.7997 152.717 30.7012 152.976 30.5035C153.234 30.3058 153.402 30.0451 153.476 29.7191H154.114C154.024 30.2089 153.789 30.6028 153.409 30.899C153.027 31.1944 152.556 31.3509 152.073 31.3421C151.676 31.3421 151.316 31.2492 150.987 31.0636C150.664 30.8828 150.397 30.6165 150.216 30.2929C150.029 29.9571 149.933 29.5778 149.938 29.1929C149.938 28.5827 150.14 28.071 150.546 27.6603C150.941 27.2535 151.488 27.0307 152.055 27.0445ZM152.062 27.5707C151.682 27.5707 151.357 27.6901 151.09 27.9266C150.821 28.1655 150.651 28.4956 150.613 28.8531H153.504C153.473 28.4923 153.302 28.159 153.027 27.9225C152.76 27.6901 152.416 27.5642 152.062 27.5707ZM157.222 27.728H155.682V31.2573H155.058V27.1276H157.22V27.728H157.222ZM158.626 31.2581H158.002V25.4763H158.626V31.2581ZM161.539 27.0445C161.89 27.0445 162.205 27.1308 162.485 27.3035C162.766 27.4754 162.982 27.7103 163.13 28.0057V27.1268H163.761V31.2565H163.13V30.3938C162.913 30.8272 162.521 31.1476 162.053 31.2726C161.885 31.3178 161.712 31.3404 161.539 31.3404C160.973 31.3404 160.501 31.1379 160.123 30.7311C159.745 30.3252 159.556 29.8127 159.556 29.1912C159.556 28.7804 159.644 28.41 159.818 28.0799C160.149 27.4359 160.815 27.0348 161.539 27.0445ZM162.714 28.0775C162.442 27.7894 162.06 27.6296 161.664 27.6385C161.246 27.6385 160.895 27.7853 160.611 28.0775C160.328 28.3697 160.186 28.7417 160.186 29.192C160.186 29.6424 160.326 30.0144 160.606 30.3066C160.887 30.6004 161.238 30.7456 161.662 30.7456C162.085 30.7456 162.436 30.5988 162.717 30.3066C162.998 30.0144 163.137 29.6424 163.137 29.192C163.139 28.7417 162.997 28.3697 162.714 28.0775ZM168.433 31.2581H167.802V27.7289H165.556V31.2581H164.932V27.1284H168.432V31.2581H168.433ZM173.569 31.2581H172.938V30.3938C172.721 30.8272 172.329 31.1476 171.861 31.2726C171.693 31.3178 171.52 31.3404 171.347 31.3404C170.781 31.3404 170.309 31.1379 169.931 30.7311C169.553 30.3252 169.365 29.8127 169.365 29.1912C169.365 28.5698 169.555 28.0573 169.935 27.6514C170.296 27.2543 170.811 27.0324 171.348 27.0437C171.698 27.0437 172.013 27.13 172.293 27.3027C172.574 27.4746 172.79 27.7095 172.94 28.0049V25.4747H173.571V31.2589L173.569 31.2581ZM172.523 28.0775C172.25 27.7894 171.868 27.6296 171.472 27.6385C171.054 27.6385 170.703 27.7853 170.419 28.0775C170.136 28.3697 169.996 28.7417 169.996 29.192C169.996 29.6424 170.135 30.0144 170.416 30.3066C170.697 30.6004 171.048 30.7456 171.472 30.7456C171.895 30.7456 172.246 30.5988 172.527 30.3066C172.808 30.0144 172.947 29.6424 172.947 29.192C172.947 28.7417 172.805 28.3697 172.523 28.0775Z" fill="#8BC53F"/>
<path d="M49.4427 11.1108V33.5019C49.4427 52.8713 25.3456 60.0001 25.3456 60.0001C25.3456 60.0001 1.25 52.8713 1.25 33.5019V11.1108H49.4427Z" fill="#8BC53F"/>
<path d="M25.3448 58.2961C22.0964 57.1912 2.88031 49.9793 2.88031 33.5024V12.7319H47.8141V33.5024C47.8141 50.0124 28.5956 57.2001 25.3448 58.2961Z" fill="#32560F"/>
<path d="M49.4427 6.66792V8.27236H31.9352L27.9685 3.03858L27.7998 2.8699L26.5335 4.47353L26.448 4.6422L29.2332 8.27236H27.0388L25.5199 6.24502L25.3512 6.07796L23.662 8.27236H21.4692L24.1697 4.81169L24.2536 4.6422L22.9042 2.8699L18.768 8.27236H1.25V6.66792H17.8391L22.9042 0L25.1825 3.03858L25.3512 3.20725L27.7998 0.000807001L32.7786 6.58399L32.8625 6.66792H49.4427Z" fill="#8BC53F"/>
<path d="M43.4511 24.4849V33.0938C43.4511 34.1914 43.3671 35.2042 43.1129 36.2163C41.0872 46.2609 29.6931 51.5778 25.3036 53.2654C21.5055 51.8304 12.4754 47.6103 8.84601 39.9304H13.6569C16.6963 44.4039 22.0979 47.273 25.3044 48.7079C29.9458 46.6822 39.231 41.5332 39.231 33.0938V30.4765L35.349 34.4432L31.3823 30.4765V40.689C30.116 41.8713 28.5972 42.8834 27.1622 43.7276V24.4849H31.3823L35.349 28.4516L39.231 24.4849H43.4511Z" fill="#8BC53F"/>
<path d="M11.4617 20.9394V24.4848H23.4473V28.7049H11.4617V32.1655H23.4473V36.3857H7.66368C7.32552 35.3736 7.24078 34.2752 7.24078 33.0945V16.7192H43.4495V20.9394H11.4617Z" fill="#8BC53F"/>
</svg>
