<svg width="176" height="60" viewBox="0 0 176 60" fill="none" xmlns="http://www.w3.org/2000/svg">
<path d="M71.6136 20.5025H66.8624V22.0851H71.2633V24.5491H66.8624V26.231H71.6136V28.695H64.2734V18.0297H71.6136V20.5025ZM81.1514 20.5025H78.242V28.695H75.6537V20.5025H72.7564V18.0289H81.1514V20.5025ZM91.4374 28.695H82.6017V18.0297H85.1899V26.231H88.8459V18.0289H91.439V28.695H91.4374ZM93.568 18.0289H97.5403C99.0947 18.0289 100.392 18.5405 101.434 19.5623C102.473 20.584 102.997 21.8543 102.997 23.3627C102.997 24.8792 102.473 26.1406 101.434 27.1632C100.392 28.1849 99.0931 28.6966 97.5403 28.6966H93.568V18.0289ZM96.1562 20.5025V26.231H97.5403C98.3853 26.231 99.0738 25.9671 99.6048 25.4401C100.141 24.9042 100.404 24.2206 100.404 23.3627C100.404 22.5137 100.14 21.822 99.6048 21.2934C99.073 20.7664 98.3853 20.5025 97.5403 20.5025H96.1562ZM112.011 20.5025H107.26V22.0851H111.662V24.5491H107.26V26.231H112.011V28.695H104.671V18.0297H112.011V20.5025ZM121.441 20.5025H116.447V22.0278H121.441V28.6958H113.853V26.2318H118.852V24.4926H113.853V18.0289H121.441V20.5025ZM75.2574 46.9765H72.6644V40.1358L69.8501 44.0097H69.6032L66.789 40.1358V46.9765H64.1975V36.3112H67.1392L69.7275 39.8477L72.3157 36.3112H75.2591V46.9765H75.2574ZM78.5381 37.7042C79.6091 36.6493 80.9327 36.1126 82.5073 36.1126C84.0818 36.1126 85.4046 36.6485 86.4764 37.7042C87.5473 38.7671 88.0832 40.0777 88.0832 41.6442C88.0832 43.2099 87.5473 44.5214 86.4764 45.5843C85.4054 46.6472 84.0818 47.1758 82.5073 47.1758C80.9327 47.1758 79.6099 46.6488 78.5381 45.5843C77.4672 44.5198 76.9313 43.2107 76.9313 41.6442C76.9305 40.0777 77.4664 38.7671 78.5381 37.7042ZM84.6218 39.4434C84.0657 38.8752 83.3603 38.5863 82.5081 38.5863C81.6558 38.5863 80.9456 38.8752 80.3895 39.4434C79.8286 40.0196 79.5526 40.754 79.5526 41.6442C79.5526 42.5425 79.8286 43.2769 80.3895 43.8451C80.9456 44.4213 81.655 44.7102 82.5081 44.7102C83.3611 44.7102 84.0657 44.4213 84.6218 43.8451C85.1827 43.2769 85.4619 42.5425 85.4619 41.6442C85.4619 40.7532 85.181 40.0204 84.6218 39.4434ZM89.7603 36.3112H93.7326C95.287 36.3112 96.584 36.8212 97.6267 37.8446C98.6654 38.8663 99.1892 40.1366 99.1892 41.645C99.1892 43.1615 98.6654 44.4229 97.6267 45.4455C96.584 46.4672 95.2854 46.9789 93.7326 46.9789H89.7603V36.3112ZM92.3485 38.784V44.5125H93.7326C94.5776 44.5125 95.2661 44.2486 95.7971 43.7216C96.333 43.1857 96.5961 42.5021 96.5961 41.6442C96.5961 40.7952 96.3322 40.1036 95.7971 39.5749C95.2652 39.0479 94.5776 38.784 93.7326 38.784H92.3485ZM108.203 38.784H103.452V40.3667H107.853V42.8306H103.452V44.5125H108.203V46.9765H100.863V36.3112H108.203V38.784ZM118.168 43.1518H117.039L118.576 46.9765H115.807L114.252 43.1518H112.619V46.9765H110.031V36.3112H118.166V43.1518H118.168ZM112.621 38.784V40.9606H115.79V38.784H112.621ZM127.033 42.9129L126.847 40.7791V36.312H129.44V46.9773H126.497L122.569 40.3828L122.767 42.5102V46.9773H120.175V36.3112H123.118L127.033 42.9129ZM138.837 38.784H134.086V40.3667H138.486V42.8306H134.086V44.5125H138.837V46.9765H131.497V36.3112H138.837V38.784ZM148.266 38.784H143.272V40.3094H148.266V46.9773H140.678V44.5133H145.677V42.7733H140.678V36.3112H148.266V38.784ZM162.571 38.784H157.577V40.3094H162.571V46.9773H154.984V44.5133H159.983V42.7733H154.984V36.3112H162.571V38.784ZM173.569 46.9765H170.981V43.795H167.293V46.9765H164.705V36.3112H173.569V46.9765ZM167.293 38.784V41.323H170.981V38.784H167.293Z" fill="#32560F"/>
<path d="M130.389 22.6929H132.943V23.2861H129.766V18.0289H130.39L130.389 22.6929ZM135.519 19.0732C135.869 19.0732 136.185 19.1596 136.465 19.3323C136.745 19.505 136.961 19.739 137.111 20.0344V19.1555H137.742V23.2852H137.111V22.4209C136.971 22.705 136.752 22.9431 136.48 23.1069C136.341 23.1916 136.19 23.2562 136.034 23.2982C135.866 23.3434 135.693 23.366 135.52 23.366C134.982 23.3781 134.466 23.1561 134.104 22.7582C133.725 22.3547 133.536 21.8406 133.536 21.2208C133.536 20.81 133.624 20.4396 133.798 20.1095C133.973 19.7786 134.212 19.5235 134.516 19.3436C134.819 19.1636 135.153 19.0732 135.519 19.0732ZM136.694 20.1062C136.421 19.8181 136.04 19.6583 135.643 19.6672C135.225 19.6672 134.874 19.8141 134.591 20.1062C134.308 20.3984 134.166 20.7704 134.166 21.2208C134.166 21.6711 134.306 22.0432 134.586 22.3353C134.867 22.6275 135.218 22.7744 135.642 22.7744C136.065 22.7744 136.416 22.6275 136.696 22.3353C136.977 22.0432 137.117 21.6711 137.117 21.2208C137.119 20.7704 136.977 20.3992 136.694 20.1062ZM142.427 23.2869H138.913V19.1555H139.537V22.6848H141.805V19.1555H142.429V23.2869H142.427ZM146.67 19.6672H144.221V20.8842H146.67V23.2869H143.599V22.7768H146.039V21.425H143.599V19.1555H146.67V19.6672ZM149.576 19.0732C149.927 19.0732 150.242 19.1596 150.522 19.3323C150.802 19.505 151.019 19.739 151.169 20.0344V19.1555H151.8V23.2852H151.169V22.4209C151.028 22.705 150.81 22.9431 150.538 23.1069C150.399 23.1916 150.248 23.2562 150.091 23.2982C149.923 23.3434 149.751 23.366 149.577 23.366C149.011 23.366 148.539 23.1634 148.162 22.7582C147.784 22.3523 147.594 21.8398 147.594 21.2184C147.594 20.8076 147.682 20.4371 147.856 20.107C148.186 19.4622 148.852 19.0611 149.576 19.0732ZM150.751 20.1062C150.479 19.8181 150.097 19.6583 149.701 19.6672C149.283 19.6672 148.931 19.8141 148.648 20.1062C148.365 20.3984 148.223 20.7704 148.223 21.2208C148.223 21.6711 148.363 22.0432 148.643 22.3353C148.924 22.6275 149.275 22.7744 149.699 22.7744C150.122 22.7744 150.473 22.6275 150.754 22.3353C151.035 22.0432 151.174 21.6711 151.174 21.2208C151.176 20.7704 151.034 20.3992 150.751 20.1062ZM156.47 23.2869H155.839V19.7576H153.594V23.2869H152.97V19.1555H156.469V23.2869H156.47ZM161.141 23.2869H160.51V19.7576H158.264V23.2869H157.64V19.1555H161.14V23.2869H161.141ZM164.19 19.0732C164.735 19.0732 165.207 19.2491 165.605 19.5994C166.098 20.0312 166.353 20.6736 166.293 21.3257H162.703C162.713 21.7615 162.861 22.1215 163.146 22.4031C163.426 22.684 163.809 22.8381 164.206 22.8284C164.551 22.8284 164.852 22.73 165.111 22.5323C165.369 22.3345 165.537 22.0738 165.611 21.7478H166.249C166.159 22.2377 165.924 22.6315 165.544 22.9277C165.162 23.2231 164.691 23.3797 164.207 23.3708C163.811 23.3708 163.45 23.278 163.122 23.0924C162.799 22.9116 162.532 22.6452 162.351 22.3216C162.164 21.9859 162.068 21.6066 162.073 21.2216C162.073 20.6115 162.275 20.0998 162.681 19.689C163.076 19.2822 163.623 19.0595 164.19 19.0732ZM164.199 19.5986C163.818 19.5986 163.493 19.718 163.226 19.9545C162.957 20.1934 162.787 20.5235 162.749 20.881H165.641C165.609 20.5203 165.438 20.1869 165.164 19.9505C164.897 19.7189 164.553 19.593 164.199 19.5986ZM133.318 26.5942H130.397V28.247H133.318V31.259H129.765V30.6658H132.694V28.8483H129.765V26.0026H133.318V26.5942ZM138.884 31.2582H138.125L137.712 29.8692L137.156 27.7733H137.11L136.554 29.8692L136.14 31.2582H135.382L134.165 27.1285H134.789L135.171 28.427L135.772 30.5447L136.365 28.427L136.747 27.1285H137.513L137.896 28.427L138.496 30.5447L139.089 28.427L139.472 27.1285H140.096C140.098 27.1277 138.884 31.2582 138.884 31.2582ZM140.884 25.6967C140.967 25.6185 141.078 25.5765 141.193 25.5797C141.315 25.5797 141.418 25.6185 141.501 25.6967C141.582 25.7718 141.628 25.8783 141.625 25.9889C141.629 26.0987 141.583 26.2044 141.501 26.2778C141.416 26.3529 141.306 26.3932 141.193 26.39C141.08 26.3932 140.969 26.3537 140.884 26.2778C140.803 26.2044 140.757 26.0987 140.76 25.9889C140.76 25.8727 140.802 25.775 140.884 25.6967ZM141.504 31.2582H140.88V27.1285H141.504V31.2582ZM143.637 27.1277H145.288V27.7208H143.637V30.6642H145.288V31.2574H143.006V27.7216H142.285V27.1285H143.006V26.2197H143.637V27.1277ZM149.351 27.7216L146.775 30.665H149.374V31.2582H145.942V30.665L148.509 27.7216H146.084V27.1285H149.351C149.351 27.1277 149.351 27.7216 149.351 27.7216ZM152.055 27.0445C152.6 27.0445 153.072 27.2205 153.47 27.5707C153.963 28.0025 154.219 28.6449 154.158 29.297H150.568C150.578 29.7328 150.726 30.0928 151.011 30.3745C151.291 30.6553 151.674 30.8095 152.071 30.7998C152.416 30.7998 152.717 30.7013 152.976 30.5036C153.234 30.3059 153.402 30.0452 153.476 29.7191H154.114C154.024 30.209 153.789 30.6028 153.409 30.899C153.027 31.1944 152.556 31.351 152.073 31.3421C151.676 31.3421 151.316 31.2493 150.987 31.0637C150.664 30.8829 150.397 30.6166 150.216 30.2929C150.029 29.9572 149.933 29.5779 149.938 29.1929C149.938 28.5828 150.14 28.0711 150.546 27.6603C150.941 27.2536 151.488 27.0308 152.055 27.0445ZM152.062 27.5707C151.682 27.5707 151.357 27.6902 151.09 27.9266C150.821 28.1655 150.651 28.4956 150.613 28.8531H153.504C153.473 28.4924 153.302 28.1591 153.027 27.9226C152.76 27.6902 152.416 27.5643 152.062 27.5707ZM157.222 27.7281H155.682V31.2574H155.058V27.1277H157.22V27.7281H157.222ZM158.626 31.2582H158.002V25.4764H158.626V31.2582ZM161.539 27.0445C161.89 27.0445 162.205 27.1309 162.485 27.3036C162.766 27.4755 162.982 27.7104 163.13 28.0057V27.1268H163.761V31.2566H163.13V30.3938C162.913 30.8272 162.521 31.1476 162.053 31.2727C161.885 31.3179 161.712 31.3405 161.539 31.3405C160.973 31.3405 160.501 31.1379 160.123 30.7312C159.745 30.3252 159.556 29.8127 159.556 29.1913C159.556 28.7805 159.644 28.4101 159.818 28.08C160.149 27.4359 160.815 27.0348 161.539 27.0445ZM162.714 28.0776C162.442 27.7894 162.06 27.6296 161.664 27.6385C161.246 27.6385 160.895 27.7854 160.611 28.0776C160.328 28.3697 160.186 28.7418 160.186 29.1921C160.186 29.6424 160.326 30.0145 160.606 30.3067C160.887 30.6004 161.238 30.7457 161.662 30.7457C162.085 30.7457 162.436 30.5988 162.717 30.3067C162.998 30.0145 163.137 29.6424 163.137 29.1921C163.139 28.7418 162.997 28.3697 162.714 28.0776ZM168.433 31.2582H167.802V27.7289H165.556V31.2582H164.932V27.1285H168.432V31.2582H168.433ZM173.569 31.2582H172.938V30.3938C172.721 30.8272 172.329 31.1476 171.861 31.2727C171.693 31.3179 171.52 31.3405 171.347 31.3405C170.781 31.3405 170.309 31.1379 169.931 30.7312C169.553 30.3252 169.365 29.8127 169.365 29.1913C169.365 28.5699 169.555 28.0574 169.935 27.6514C170.296 27.2544 170.811 27.0324 171.348 27.0437C171.698 27.0437 172.013 27.1301 172.293 27.3028C172.574 27.4747 172.79 27.7095 172.94 28.0049V25.4748H173.571V31.259L173.569 31.2582ZM172.523 28.0776C172.25 27.7894 171.868 27.6296 171.472 27.6385C171.054 27.6385 170.703 27.7854 170.419 28.0776C170.136 28.3697 169.996 28.7418 169.996 29.1921C169.996 29.6424 170.135 30.0145 170.416 30.3067C170.697 30.6004 171.048 30.7457 171.472 30.7457C171.895 30.7457 172.246 30.5988 172.527 30.3067C172.808 30.0145 172.947 29.6424 172.947 29.1921C172.947 28.7418 172.805 28.3697 172.523 28.0776Z" fill="#8BC53F"/>
<path d="M49.4427 11.1108V33.5018C49.4427 52.8712 25.3456 60 25.3456 60C25.3456 60 1.25 52.8712 1.25 33.5018V11.1108H49.4427Z" fill="#8BC53F"/>
<path d="M25.3448 58.2962C22.0964 57.1914 2.88031 49.9795 2.88031 33.5026V12.7321H47.8141V33.5026C47.8141 50.0126 28.5956 57.2003 25.3448 58.2962Z" fill="#32560F"/>
<path d="M49.4427 6.66792V8.27236H31.9352L27.9685 3.03858L27.7998 2.8699L26.5335 4.47353L26.448 4.6422L29.2332 8.27236H27.0388L25.5199 6.24502L25.3512 6.07796L23.662 8.27236H21.4692L24.1697 4.81169L24.2536 4.6422L22.9042 2.8699L18.768 8.27236H1.25V6.66792H17.8391L22.9042 0L25.1825 3.03858L25.3512 3.20725L27.7998 0.000807001L32.7786 6.58399L32.8625 6.66792H49.4427Z" fill="#8BC53F"/>
<path d="M43.4511 24.4846V33.0935C43.4511 34.1911 43.3671 35.204 43.1129 36.216C41.0872 46.2607 29.6931 51.5776 25.3036 53.2652C21.5055 51.8302 12.4754 47.6101 8.84601 39.9301H13.6569C16.6963 44.4036 22.0979 47.2727 25.3044 48.7077C29.9458 46.682 39.231 41.5329 39.231 33.0935V30.4762L35.349 34.4429L31.3823 30.4762V40.6887C30.116 41.8711 28.5972 42.8831 27.1622 43.7273V24.4846H31.3823L35.349 28.4513L39.231 24.4846H43.4511Z" fill="#8BC53F"/>
<path d="M11.4617 20.9392V24.4846H23.4473V28.7047H11.4617V32.1654H23.4473V36.3855H7.66368C7.32552 35.3734 7.24078 34.275 7.24078 33.0943V16.7191H43.4495V20.9392H11.4617Z" fill="#8BC53F"/>
</svg>
