<svg width="52" height="46" viewBox="0 0 52 46" fill="none" xmlns="http://www.w3.org/2000/svg">
<path fill-rule="evenodd" clip-rule="evenodd" d="M18.9066 1.1283L18.3202 1.28784L17.8804 1.54558L17.4405 1.80332L17.0357 2.25155L16.6307 2.69968L16.3486 3.30146L16.0664 3.90324L16.0311 5.79843L15.9957 7.69373L9.60056 7.72585L3.20539 7.75808L2.3871 8.16262L1.5688 8.56717L1.18524 9.01529L0.801687 9.46331L0.510218 10.0563L0.21875 10.6492L0.21875 26.3898L0.21875 42.1304L0.447684 42.6122L0.676619 43.0941L1.00963 43.5479L1.34265 44.0018L1.90503 44.3735L2.4674 44.7451L3.10559 44.9101L3.74378 45.075H25.9712H48.1986L48.8357 44.9091L49.4728 44.7431L49.9867 44.4134L50.5006 44.0837L50.865 43.6389L51.2295 43.1942L51.4765 42.6622L51.7236 42.1304L51.7524 26.6575L51.7812 11.1846L51.5652 10.4886L51.3492 9.79258L50.9797 9.29284L50.61 8.793L50.1496 8.48129L49.6891 8.16958L49.2073 7.96378L48.7254 7.75808L42.336 7.72585L35.9467 7.69373L35.9113 5.79565L35.876 3.89757L35.5247 3.18464L35.1734 2.4716L34.6361 1.98857L34.0988 1.50554L33.4883 1.25883L32.8778 1.01212L26.1854 0.990487L19.4929 0.96875L18.9066 1.1283ZM32.8967 3.48478L33.199 3.70879L33.4399 4.06279L33.6809 4.41679V6.06067V7.70454L25.9712 7.70454H18.2615V6.093V4.48158L18.412 4.19236L18.5624 3.90324L18.8263 3.65675L19.0902 3.41036L19.3986 3.31634L19.7071 3.22233L26.1508 3.2416L32.5946 3.26077L32.8967 3.48478ZM48.6607 10.2209L49.0243 10.4351L49.2496 10.7372L49.475 11.0394L49.5058 15.0739L49.5366 19.1084L49.3652 19.9555L49.1938 20.8026L48.8813 21.4917L48.5689 22.1808L48.0804 22.8654L47.5919 23.55L46.9273 24.0912L46.2626 24.6325L45.5131 25.0009L44.7635 25.3693L44.121 25.5532L43.4786 25.7369L36.9735 25.7749L30.4685 25.813V23.8713V21.9295L30.1555 21.6165L29.8425 21.3035H25.9712H22.0999L21.7869 21.6165L21.4739 21.9295V23.8713V25.813L14.9689 25.7749L8.46382 25.7369L7.82134 25.5532L7.17887 25.3693L6.42932 25.0009L5.67977 24.6325L5.01513 24.0912L4.35049 23.55L3.862 22.8654L3.37351 22.1808L3.06319 21.4964L2.75277 20.8118L2.58337 19.9914L2.41386 19.171L2.41386 15.2547V11.3384L2.55971 10.9938L2.70555 10.6492L2.92741 10.4516L3.14928 10.2541L3.55789 10.1078L3.96651 9.96155L26.1318 9.98414L48.2971 10.0067L48.6607 10.2209ZM28.2199 26.9252V30.2982H25.9712H23.7225V26.9252V23.5522H25.9712H28.2199V26.9252ZM4.49355 26.4961L5.12756 26.9017L5.77849 27.1951L6.42932 27.4884L7.33949 27.7366L8.24966 27.9847L14.8618 28.0237L21.4739 28.0628V29.9156V31.7684L21.6929 32.0469L21.9119 32.3253L22.3086 32.4355L22.7053 32.5456H25.9712H29.2371L29.6338 32.4355L30.0304 32.3253L30.2495 32.0469L30.4685 31.7684V29.9156V28.0628L37.0806 28.0221L43.6927 27.9815L44.5736 27.75L45.4544 27.5186L46.1346 27.2101L46.8148 26.9017L47.4488 26.4961L48.083 26.0905L48.8057 25.3927L49.5285 24.6949V33.0681V41.4412L49.3793 41.7984L49.23 42.1556L48.8254 42.4642L48.4209 42.7728H25.9712H3.52149L3.11694 42.4642L2.7124 42.1556L2.56313 41.7984L2.41386 41.4412V33.0681V24.6949L3.13665 25.3927L3.85943 26.0905L4.49355 26.4961Z" fill="#8BC53F"/>
</svg>
