<svg width="60" height="44" viewBox="0 0 60 44" fill="none" xmlns="http://www.w3.org/2000/svg">
<path fill-rule="evenodd" clip-rule="evenodd" d="M15.1349 5.35141L1.03137 10.0253L0.680976 10.3584L0.330586 10.6914L0.165352 11.0078L-5.26381e-08 11.3243L-5.53297e-08 11.869L-5.80218e-08 12.4138L0.189726 12.8137L0.37957 13.2136L0.712851 13.4941L1.04602 13.7745L6.39633 15.5578L11.7466 17.3413L11.6767 17.825L11.6067 18.3086L11.3704 19.8906L11.1339 21.4727L11.1334 21.9121L11.1328 22.3516L11.3672 22.5859L11.6016 22.8203L12.0071 22.8203L12.4127 22.8203L12.6395 22.5769L12.8662 22.3335L12.9989 21.3757L13.1316 20.418L13.3219 19.1875L13.5122 17.957L13.532 17.9293L13.5518 17.9014L14.8911 18.3495L16.2305 18.7976L16.2628 19.8421L16.2952 20.8867L15.6445 21.2249L14.994 21.5631L14.6985 21.9143L14.4028 22.2657L14.1611 22.7396L13.9193 23.2135L13.8577 23.893L13.7961 24.5725L13.9461 25.1083L14.0961 25.6441L14.4348 26.1115L14.7734 26.579L14.4714 27.9516L14.1694 29.3242L13.9648 30.764L13.7602 32.2036L13.0233 31.7274L12.2864 31.2511L12.352 30.1118L12.4177 28.9727L12.488 27.2484L12.5583 25.5242L12.261 25.2269L11.9638 24.9297L11.6273 24.9297L11.2909 24.9297L11.019 25.219L10.7473 25.5084L10.6526 27.0061L10.5579 28.5039L10.5524 30.0613L10.5469 31.6187L10.7802 32.076L11.0135 32.5333L11.3954 32.821L11.7773 33.1087L12.6991 33.6651L13.6209 34.2216L13.5468 34.7611L13.4726 35.3008L13.3976 37.9566L13.3225 40.6124L13.4736 40.9772L13.6247 41.342L13.9641 41.5837L14.3036 41.8254L15.2084 41.9867L16.1133 42.148L17.168 42.148L18.2227 42.148L19.1276 41.9867L20.0324 41.8254L20.3719 41.5837L20.7112 41.342L20.8543 40.9964L20.9974 40.651L20.9577 38.7654L20.918 36.88L21.0937 36.9484L21.2695 37.0168L22.881 37.3307L24.4924 37.6445L24.555 38.0547L24.6175 38.4648L24.7975 39.1664L24.9773 39.8682L25.4018 40.6758L25.8262 41.4835L26.3937 42.1043L26.9611 42.7252L27.566 43.0267L28.1711 43.3281L28.7764 43.3281L29.3818 43.3281L36.4774 40.75L43.573 38.1719L43.9407 38.1719L44.3085 38.1719L44.6368 38.3417L44.9652 38.5115L45.3267 38.9233L45.6884 39.3351L46.1019 40.2067L46.5156 41.0784L46.818 41.3162L47.1204 41.5541L47.4493 41.6263L47.7783 41.6986L49.9 40.9368L52.0215 40.1751L52.3676 39.9961L52.7136 39.8172L52.9584 39.5061L53.2031 39.1949L53.2031 38.6968L53.2031 38.1986L52.7336 37.4953L52.264 36.7922L51.8298 36.4566L51.3956 36.1211L50.9897 35.8712L50.5836 35.6214L51.3015 35.3596L52.0194 35.0979L52.192 34.9063L52.3645 34.7148L52.4442 34.3955L52.5239 34.0762L52.1694 33.7217L51.8149 33.3672L51.6354 33.3672L51.456 33.3672L50.1615 33.8289L48.8672 34.2906L48.8672 33.4434L48.8672 32.5961L48.6875 31.9062L48.5078 31.2163L48.1641 30.5046L47.8203 29.793L47.3474 29.1749L46.8744 28.5569L47.1884 28.4376L47.5024 28.3182L51.506 26.8582L55.5096 25.3984L55.8239 25.3984L56.1381 25.3984L56.6678 25.8868L57.1975 26.375L57.5943 27.2051L57.9911 28.0352L58.1256 28.7889L58.2602 29.5428L58.1878 29.9608L58.1155 30.3789L57.9923 30.6927L57.8692 31.0066L57.6748 31.0844L57.4805 31.1622L56.2171 31.6179L54.9538 32.0737L54.7391 32.1886L54.5243 32.3036L54.3818 32.6475L54.2393 32.9916L54.42 33.3409L54.6007 33.6904L54.7904 33.7632L54.9802 33.8359L55.2194 33.8359L55.4587 33.8359L56.9384 33.3013L58.418 32.7667L58.7801 32.5209L59.1422 32.275L59.404 31.8931L59.6657 31.5112L59.8329 30.9557L60 30.4002L59.9982 29.5693L59.9965 28.7383L59.8175 27.9766L59.6386 27.2148L59.228 26.3826L58.8173 25.5503L58.2509 24.9147L57.6844 24.2791L57.0886 23.9548L56.4928 23.6305L55.9319 23.5676L55.3711 23.5047L52.3242 24.617L49.2773 25.7293L49.2463 25.4173L49.2152 25.1055L49.0318 23.2327L48.8484 21.36L48.6209 19.8343L48.3933 18.3086L48.3233 17.825L48.2534 17.3413L53.6037 15.5579L58.954 13.7745L59.2871 13.4941L59.6204 13.2136L59.8103 12.8137L60 12.4138L60 11.9297L60 11.4456L59.8386 11.0685L59.6773 10.6914L59.3256 10.3609L58.9739 10.0304L56.7037 9.27426L54.4336 8.51828L42.5802 4.59508L30.7269 0.671875L29.9825 0.674688L29.2383 0.6775L15.1349 5.35141ZM44.2383 7.05625L57.9492 11.5943L58.1095 11.7469L58.27 11.8994L58.1916 12.0262L58.1132 12.1531L49.5661 14.9741L41.0191 17.7952L40.8416 18.0487L40.6641 18.3021L40.6641 18.5533L40.6641 18.8043L40.907 19.1131L41.1498 19.4219L41.5255 19.4219L41.9013 19.4219L44.1749 18.6618L46.4486 17.9016L46.4681 17.9294L46.4878 17.957L46.6807 19.1875L46.8736 20.418L47.0423 21.7656L47.2111 23.1133L47.3491 24.7311L47.4872 26.3487L47.4448 26.384L47.4023 26.4193L36.8555 30.2569L26.3086 34.0947L26.0156 34.2479L25.7227 34.4009L25.4137 34.7337L25.1048 35.0664L24.9127 35.4473L24.7206 35.8281L24.6701 35.8281L24.6196 35.8281L22.8939 35.4693L21.1682 35.1103L20.9808 35.01L20.7934 34.9097L20.6456 33.2003L20.498 31.4909L20.2644 30.0561L20.031 28.6211L19.7891 27.5883L19.5473 26.5555L19.7209 26.3579L19.8946 26.1602L20.1698 25.6328L20.4451 25.1055L20.4451 24.168L20.4451 23.2305L20.1891 22.7481L19.9331 22.2657L19.6375 21.9143L19.3419 21.5631L18.6947 21.2249L18.0475 20.8867L18.0471 20.1418L18.0469 19.3968L18.1934 19.4523L18.3398 19.5078L23.8682 21.3398L29.3965 23.1719L29.9927 23.1719L30.5891 23.1719L34.5098 21.8782L38.4306 20.5846L38.6099 20.3287L38.7891 20.0729L38.7891 19.832L38.7891 19.5912L38.6014 19.3233L38.4138 19.0555L38.1473 18.9542L37.8809 18.8529L34.1455 20.0727L30.4102 21.2924L30.0061 21.2946L29.6019 21.2969L24.5569 19.6457L19.5117 17.9945L19.417 17.9045L19.3225 17.8146L23.3155 15.18L27.3087 12.5455L27.9604 12.7655L28.6119 12.9855L29.8247 12.9911L31.0373 12.9967L31.6894 12.8614L32.3414 12.726L32.8992 12.3532L33.457 11.9805L33.7207 11.4576L33.9844 10.9347L33.9844 10.487L33.9844 10.0394L33.8028 9.60367L33.6213 9.16797L33.1876 8.71844L32.7539 8.26879L32.2266 8.00207L31.6992 7.73523L31.0675 7.58629L30.4356 7.43746L29.5829 7.50191L28.7303 7.56637L28.164 7.81598L27.5977 8.06559L27.1471 8.37683L26.6965 8.68797L26.3571 9.27953L26.0178 9.87109L26.0167 10.5408L26.0156 11.2105L21.6504 14.1024L17.2852 16.9943L17.0948 17.046L16.9045 17.0977L9.39457 14.6236L1.88473 12.1496L1.80738 12.0245L1.73004 11.8994L1.89047 11.7464L2.05078 11.5936L14.3555 7.53203L26.6602 3.47055L28.1836 2.9534L29.707 2.43637L30.1172 2.47727L30.5273 2.51816L44.2383 7.05625ZM31.1447 9.52516L31.5789 9.70645L31.8441 9.9557L32.1094 10.205L32.1094 10.4834L32.1094 10.762L31.6699 10.9584L31.2305 11.1546L29.9414 11.153L28.6523 11.1514L28.2789 10.9514L27.9055 10.7516L27.8347 10.637L27.7638 10.5225L27.9393 10.1833L28.1147 9.84414L28.5007 9.66672L28.8867 9.48941L29.0625 9.42578L29.2383 9.36227L29.9745 9.35301L30.7106 9.34375L31.1447 9.52516ZM17.9336 22.8809L18.2773 23.0587L18.455 23.4024L18.6328 23.7462L18.6328 24.2704L18.6328 24.7946L18.3323 25.1516L18.0318 25.5087L17.6036 25.627L17.1754 25.7452L16.7408 25.6282L16.3062 25.5112L16.0046 25.1528L15.7031 24.7946L15.6901 24.4812L15.6772 24.168L15.7014 23.8831L15.7254 23.5983L15.9068 23.3214L16.0883 23.0446L16.3937 22.8786L16.6992 22.7125L17.1445 22.7078L17.5897 22.7031L17.9336 22.8809ZM18.036 28.0645L18.1656 28.6211L18.3968 29.9958L18.6281 31.3707L18.8116 33.1599L18.9952 34.9492L19.0661 37.5402L19.137 40.1314L18.709 40.2116L18.281 40.2919L17.168 40.2919L16.0549 40.2919L15.6267 40.2116L15.1986 40.1312L15.2723 37.423L15.3461 34.7148L15.5296 33.0156L15.7131 31.3164L15.8905 30.2031L16.0678 29.0898L16.2464 28.2988L16.425 27.5078L17.1656 27.5078L17.9064 27.5078L18.036 28.0645ZM45.1868 29.624L45.577 29.8652L45.9175 30.2978L46.2579 30.7305L46.5089 31.2261L46.76 31.7215L46.9461 32.5151L47.1322 33.3086L47.0698 33.9328L47.0073 34.5572L46.8277 34.8313L46.6481 35.1053L46.0291 35.3346L45.4102 35.5639L45.1465 35.6453L44.8828 35.7268L44.8828 34.9231L44.8828 34.1195L44.7053 33.4211L44.5277 32.7227L44.127 31.9023L43.7262 31.082L43.2945 30.5784L42.8627 30.0747L42.9067 30.0309L42.9505 29.987L43.7115 29.6931L44.4727 29.3991L44.6346 29.391L44.7966 29.3828L45.1868 29.624ZM41.589 31.4332L42.1525 31.9602L42.5377 32.7958L42.9227 33.6313L43.0397 34.4661L43.1566 35.3008L43.0236 35.7695L42.8907 36.2383L42.7902 36.3939L42.6898 36.5495L37.0798 38.5912L31.4699 40.6328L31.3973 40.6328L31.3247 40.6328L31.3082 39.7641L31.2916 38.8953L31.0016 37.977L30.7114 37.0586L30.2892 36.3555L29.8671 35.6523L29.5612 35.3313L29.2554 35.0103L29.3054 34.9643L29.3555 34.9184L34.8047 32.9248L40.2539 30.9312L40.6398 30.9187L41.0257 30.9062L41.589 31.4332ZM27.9537 36.3134L28.4802 36.7988L28.8952 37.6384L29.3101 38.4782L29.4389 39.2332L29.5677 39.9883L29.4845 40.5399L29.4012 41.0915L29.193 41.3486L28.9848 41.6057L28.6429 41.5203L28.3008 41.435L27.7655 40.8807L27.2303 40.3264L26.9637 39.7758L26.6972 39.2252L26.5336 38.6106L26.37 37.9961L26.3686 37.3107L26.3672 36.6252L26.5563 36.2267L26.7455 35.8281L27.0862 35.8281L27.4271 35.8281L27.9537 36.3134ZM49.5821 37.2241L50.2385 37.4725L50.7463 37.9412L51.2541 38.41L51.1446 38.5062L51.0352 38.6023L49.4766 39.1625L47.9181 39.7227L47.886 39.6797L47.8539 39.6367L47.5281 38.9922L47.2023 38.3477L46.733 37.7842L46.2636 37.2208L46.3056 37.185L46.3477 37.1493L46.6992 37.0176L47.0508 36.886L47.9883 36.9307L48.9258 36.9755L49.5821 37.2241Z" fill="#8BC53F"/>
</svg>
