<svg width="50" height="52" viewBox="0 0 50 52" fill="none" xmlns="http://www.w3.org/2000/svg">
<path fill-rule="evenodd" clip-rule="evenodd" d="M37.3679 0.362641L36.8388 0.485846L36.3348 0.662733L35.8308 0.83972L35.1243 1.32346L34.4179 1.8072L34.0228 2.29951L33.6278 2.79183L31.6358 5.51627L29.6437 8.2407L28.6261 9.55247L27.6084 10.8642L26.2128 12.5796L24.8172 14.295L23.4691 15.8572L22.1212 17.4194L20.1011 19.5779L18.081 21.7363L16.1091 23.6289L14.1371 25.5216L12.6393 26.8708L11.1414 28.2199L9.46486 29.6405L7.7883 31.061L5.28727 33.0587L2.78623 35.0565L2.31748 35.5231L1.84863 35.9896L1.38007 36.7332L0.91161 37.4768L0.651117 38.2972L0.390625 39.1177L0.392645 40.6817L0.394761 42.2457L0.604463 43.0437L0.814166 43.8417L1.14209 44.6373L1.46992 45.4328L1.98378 46.305L2.49765 47.1773L3.55578 48.3087L4.61391 49.44L5.47735 50.0264L6.34088 50.6129L7.19585 50.9995L8.05091 51.3862L8.83345 51.5831L9.61598 51.7798L11.0247 51.7805L12.4334 51.7812L13.0929 51.5678L13.7523 51.3544L14.2864 51.072L14.8204 50.7895L15.3233 50.3725L15.8262 49.9556L16.5688 48.9693L17.3115 47.9831L18.5136 46.3252L19.7157 44.6674L21.2417 42.6746L22.7677 40.6817L22.8291 40.6827L22.8907 40.6837L23.6389 43.6316L24.3872 46.5796L24.643 46.8596L24.8987 47.1396L25.2995 47.1396L25.7003 47.1396L25.9325 46.9126L26.1645 46.6855L26.8314 44.9449L27.4983 43.2043L27.5512 43.2043L27.6042 43.2043L28.9028 44.2748L30.2014 45.3453L30.5039 45.4993L30.8064 45.6533L31.0653 45.5851L31.3242 45.517L31.5525 45.2774L31.7808 45.038L31.8383 44.7977L31.8958 44.5575L30.6398 39.6512L29.3838 34.7451L29.3838 34.6516L29.3838 34.5581L33.977 35.8517L38.5703 37.1454L38.9384 37.1477L39.3066 37.15L39.5877 36.8551L39.8689 36.5601L39.8689 36.2132L39.8689 35.8664L39.641 35.5142L39.4132 35.162L38.4801 33.9187L37.5472 32.6755L37.674 32.602L37.8007 32.5286L39.1474 31.9534L40.4942 31.3782L40.7994 31.2292L41.1045 31.0801L41.2647 30.7262L41.4247 30.3722L41.3676 30.1334L41.3105 29.8944L41.0947 29.6334L40.8789 29.3724L37.8693 28.5259L34.8596 27.6793L34.7605 27.6446L34.6615 27.6099L35.7982 26.5481L36.935 25.4863L38.5222 24.0719L40.1094 22.6576L41.5523 21.4465L42.9952 20.2352L45.3239 18.3959L47.6528 16.5566L48.0463 16.0816L48.4399 15.6068L48.8626 14.6986L49.2854 13.7905L49.4474 12.9386L49.6094 12.0869L49.5571 10.9205L49.505 9.75428L49.3066 8.9869L49.1082 8.21962L48.7628 7.37242L48.4173 6.52532L47.793 5.54089L47.1685 4.55656L46.3722 3.7136L45.5758 2.87074L44.8626 2.3426L44.1495 1.81456L43.3319 1.3841L42.5142 0.953642L41.9371 0.746585L41.3599 0.539628L40.6184 0.379189L39.877 0.21875L38.887 0.229043L37.8969 0.239436L37.3679 0.362641ZM40.6188 2.49487L41.2245 2.63977L41.9125 2.94682L42.6005 3.25398L43.4084 3.81783L44.2163 4.38169L44.9231 5.11355L45.6299 5.84552L46.168 6.71129L46.706 7.57715L46.9339 8.1178L47.1619 8.65845L47.3109 9.18508L47.46 9.7117L47.5676 10.5351L47.675 11.3586L47.5621 12.1934L47.4491 13.0282L47.0499 13.8614L46.6506 14.6946L46.0734 15.1879L45.4962 15.6811L44.9191 15.9598L44.3419 16.2386L43.6354 16.3623L42.9288 16.486L42.2939 16.4146L41.659 16.3433L40.9323 16.1438L40.2056 15.9444L39.4169 15.5405L38.6282 15.1366L38.0864 14.7296L37.5447 14.3227L39.332 12.4312L41.1194 10.5396L41.1305 10.2984L41.1415 10.057L41.1233 9.85519L41.1049 9.65338L40.8206 9.30021L40.5364 8.94704L39.9587 8.1514L39.381 7.35567L39.0072 6.5343L38.6335 5.71283L38.4335 4.89136L38.2336 4.06999L38.2336 3.21089L38.2336 2.35178L38.45 2.30284L38.6665 2.2539L39.3398 2.30204L40.0132 2.35007L40.6188 2.49487ZM36.4463 5.19438L36.5949 5.86691L36.8882 6.66447L37.1814 7.46212L37.6361 8.25503L38.0909 9.04794L38.4548 9.54712L38.8186 10.0462L37.492 11.4412L36.1654 12.8362L35.9058 12.5061L35.6463 12.176L35.2442 11.4416L34.8421 10.7073L34.5675 9.87143L34.2927 9.03563L34.1854 8.23455L34.0779 7.43346L34.14 6.78626L34.202 6.13905L34.3991 5.52494L34.5961 4.91084L35.0198 4.28785L35.4433 3.66476L35.8044 3.35205L36.1654 3.03935L36.2315 3.7806L36.2976 4.52185L36.4463 5.19438ZM32.3079 9.10496L32.446 9.85519L32.7051 10.612L32.9641 11.3688L33.3373 12.1255L33.7105 12.8823L34.3288 13.7452L34.9471 14.608L35.6251 15.2788L36.3031 15.9498L37.0038 16.4724L37.7045 16.9951L38.5703 17.4303L39.436 17.8656L40.3018 18.1166L41.1675 18.3676L41.5407 18.4321L41.9141 18.4966L41.8293 18.5749L41.7447 18.6531L40.4942 19.6984L39.2436 20.7436L37.5122 22.274L35.7807 23.8044L34.2277 25.2553L32.6748 26.7063L31.5756 27.7867L30.4764 28.8671L30.1946 28.9831L29.9129 29.0991L29.2842 29.0981L28.6556 29.0972L27.8909 28.8279L27.1261 28.5585L26.3611 28.0865L25.5962 27.6145L24.6475 26.6639L23.6987 25.7133L23.1644 24.8708L22.6299 24.0283L22.3583 23.3492L22.0865 22.6701L21.9762 22.0037L21.8658 21.3371L21.9795 20.8942L22.0932 20.4513L23.1172 19.3036L24.1412 18.1558L25.5026 16.5612L26.8639 14.9666L28.4365 13.0148L30.009 11.063L31.0596 9.67749L32.1101 8.29207L32.14 8.32335L32.1698 8.35463L32.3079 9.10496ZM20.1997 23.1999L20.3601 23.7801L20.7281 24.59L21.096 25.3999L21.6723 26.2455L22.2485 27.0911L23.0025 27.8915L23.7565 28.6918L24.3278 29.1438L24.899 29.5959L25.5714 30.0148L26.2437 30.4338L27.2823 30.7982L28.3209 31.1626L27.2892 32.2292L26.2574 33.2957L25.7913 33.369L25.3252 33.4424L24.8587 33.3844L24.3922 33.3264L23.6997 33.0739L23.0072 32.8212L22.2356 32.3368L21.4641 31.8525L20.614 31.0083L19.7639 30.1642L19.3176 29.5452L18.8712 28.9262L18.4981 28.1157L18.1252 27.3051L18.0243 26.6526L17.9235 26L17.9862 25.5459L18.0488 25.0919L18.2216 24.6779L18.3942 24.2641L19.1996 23.4448L20.0049 22.6255L20.0221 22.6226L20.0393 22.6197L20.1997 23.1999ZM16.1457 27.4631L16.3111 28.119L16.7337 29.0272L17.1565 29.9353L17.7756 30.793L18.3948 31.6507L19.2239 32.4854L20.0529 33.3201L20.8466 33.8602L21.6402 34.4002L22.025 34.6028L22.4097 34.8052L23.1793 35.0618L23.9488 35.3185L24.2177 35.3796L24.4866 35.4408L23.4927 36.6233L22.4989 37.8059L20.9124 39.824L19.326 41.8421L18.1674 43.4061L17.0089 44.9702L15.7463 46.6974L14.4837 48.4246L14.1764 48.6959L13.8692 48.9671L13.4219 49.2048L12.9746 49.4427L12.4228 49.6109L11.8711 49.7791L10.936 49.7794L10.0008 49.7796L9.23121 49.5685L8.46166 49.3575L7.6672 48.959L6.87264 48.5607L6.41668 48.2317L5.96062 47.9027L5.17549 47.1122L4.39036 46.3216L3.89361 45.5679L3.39697 44.8142L3.07106 44.0743L2.74516 43.3345L2.53507 42.5378L2.32498 41.7412L2.32306 40.7321L2.32114 39.7231L2.4965 39.0838L2.67195 38.4443L3.0323 37.8596L3.39264 37.2747L3.9774 36.7642L4.56226 36.2537L6.17533 34.964L7.7883 33.6744L10.097 31.7438L12.4056 29.8133L14.1371 28.2458L15.8686 26.6783L15.9245 26.7428L15.9804 26.8072L16.1457 27.4631ZM35.0592 29.8888L36.935 30.4097L37.0594 30.4816L37.1838 30.5536L36.266 30.9348L35.348 31.3159L35.1555 31.5726L34.963 31.8293L34.963 32.1547L34.963 32.4802L35.1966 32.8413L35.4301 33.2023L35.8251 33.7264L36.2201 34.2505L36.1906 34.2814L36.1612 34.3123L33.0851 33.4518L30.009 32.5915L29.9372 32.52L29.8653 32.4484L31.3795 30.8649L32.8937 29.2814L33.0386 29.3247L33.1834 29.368L35.0592 29.8888ZM28.2758 38.4075L29.1001 41.6247L29.0737 41.6994L29.0471 41.7741L28.2776 41.1273L27.508 40.4805L27.1122 40.4802L26.7163 40.4799L26.4824 40.6729L26.2485 40.8658L25.8752 41.8552L25.5019 42.8446L25.4635 42.7239L25.4252 42.6032L24.9165 40.6302L24.4078 38.6572L25.9029 36.8957L27.3981 35.1342L27.4248 35.1623L27.4515 35.1903L28.2758 38.4075ZM4.40873 39.0442L4.20355 39.2186L4.0961 39.4389L3.98865 39.6594L3.98865 39.8273L3.98865 39.9953L4.13756 40.3245L4.28647 40.6537L4.52686 40.7686L4.76725 40.8835L5.05871 40.8835L5.35018 40.8835L5.63135 40.5886L5.91253 40.2936L5.91253 39.8744L5.91253 39.4553L5.63135 39.1603L5.35018 38.8654L4.98205 38.8676L4.61391 38.8698L4.40873 39.0442ZM5.48235 43.03L5.14298 43.3859L5.14298 43.655L5.14298 43.9239L5.2512 44.1443L5.35951 44.3647L5.75535 44.91L6.15118 45.4553L6.81117 46.0381L7.47125 46.621L8.13451 46.9864L8.79766 47.352L9.35107 47.5536L9.90457 47.7551L10.6775 47.8141L11.4505 47.8729L12.0218 47.6986L12.5932 47.5244L13.0044 47.093L13.4156 46.6616L13.4156 46.2968L13.4156 45.932L13.1511 45.6373L12.8866 45.3428L12.6353 45.2842L12.3841 45.2255L11.9139 45.4759L11.4437 45.7261L10.9057 45.7265L10.3675 45.7269L9.79943 45.5222L9.23121 45.3175L8.71648 44.9595L8.20174 44.6013L7.70644 44.0752L7.21114 43.5491L6.92256 43.1671L6.63398 42.785L6.22785 42.7295L5.82172 42.674L5.48235 43.03Z" fill="#8BC53F"/>
</svg>
